<svg version="1.1" id="the-wh-logo-btca" xmlns="http://www.w3.org/2000/svg" xmlns:xlink="http://www.w3.org/1999/xlink" x="0px" y="0px" viewBox="0 0 593.1 471.2" style="enable-background:new 0 0 593.1 471.2" xml:space="preserve"><style type="text/css">#the-wh-logo-btca .st0{fill:#0A2458;}
  #the-wh-logo-btca .st1{opacity:0.5;fill:#0A2458;}</style><g><g><path class="st0" d="M95.5,38.5l-10-13.8c-6.9-9.4-9.8-11.9-17-12.2l-5-0.1v77.2L78,92.9v5.4H26.6v-5.4l14.5-3.4V12.4l-5.4,0.1
      c-7.2,0.3-10.4,3.1-17,12.2l-10,13.8l-4.3-0.7L9,4.9h86.3l4.4,32.9L95.5,38.5z"></path><path class="st0" d="M197.7,13.7l-12.5-3.4V4.9h48.6v5.4L220,13.7v75.9l13.8,3.4v5.4h-48.6v-5.4l12.5-3.4V54.5h-39.3v35.1
      l12.5,3.4v5.4h-48.6v-5.4l13.8-3.4V13.7l-13.8-3.4V4.9h48.6v5.4l-12.5,3.4v31.5h39.3V13.7z"></path><path class="st0" d="M340.4,34.1l-4,0.9l-9.5-12.3c-5.6-7-8.5-9.2-18-9.5l-15.7-0.3v35.1h6.5c7.8,0,9.8-1.6,13.4-11.7l1.6-4.7h4.5
      v40.1h-4.7l-1.5-4.3c-3.4-10-5.6-11.9-13.4-11.9h-6.5v34.9l21.1-0.6c8.7-0.3,12-2.8,16.7-8.5l10.3-13.1l4,0.6L342,98.4h-85v-5.4
      l13.8-3.4V13.7L257,10.3V4.9h80.7L340.4,34.1z"></path></g><g><path class="st0" d="M114.1,254.6h0.9l16.3-56.3l-10.1-5.1v-4.8h33.5v5.3l-11.7,5.6l-28.3,83.5h-12.2l-21.7-62.1h-0.9L56,282.6
      H43.8l-27-85.1l-12.8-4v-5.3h47.1v4.8l-11,3.2l16.4,58.5H57l18.5-49.3l-3.1-8.5l-10-4v-4.8h43.9v4.8l-11,3.7L114.1,254.6z"></path><path class="st0" d="M248.5,197l-12.5-3.4v-5.4h48.6v5.4l-13.8,3.4v75.9l13.8,3.4v5.4h-48.6v-5.4l12.5-3.4v-35.1h-39.3v35.1
      l12.5,3.4v5.4h-48.6v-5.4l13.8-3.4V197l-13.8-3.4v-5.4h48.6v5.4l-12.5,3.4v31.5h39.3V197z"></path><path class="st0" d="M359.6,276.3v5.4h-50.3v-5.4l14.1-3.4V197l-14.1-3.4v-5.4h50.3v5.4l-13.9,3.4v75.9L359.6,276.3z"></path><path class="st0" d="M474.9,221.8L465,208c-6.9-9.4-9.8-11.9-17-12.2l-5-0.1v77.2l14.5,3.4v5.4h-51.4v-5.4l14.5-3.4v-77.2
      l-5.4,0.1c-7.2,0.3-10.4,3.1-17,12.2l-10,13.8l-4.3-0.7l4.5-32.9h86.3l4.4,32.9L474.9,221.8z"></path><path class="st0" d="M585.1,217.4l-4,0.9l-9.5-12.3c-5.6-7-8.5-9.2-18-9.5l-15.7-0.3v35.1h6.5c7.8,0,9.8-1.6,13.4-11.7l1.6-4.7
      h4.5v40.1h-4.7l-1.5-4.3c-3.4-10-5.6-11.9-13.4-11.9h-6.5v34.9l21.1-0.6c8.7-0.3,12-2.8,16.7-8.5l10.3-13.1l4,0.6l-3.2,29.6h-85
      v-5.4l13.8-3.4V197l-13.8-3.4v-5.4h80.7L585.1,217.4z"></path></g><g><path class="st0" d="M90.8,381.3l-12.5-3.4v-5.4h48.6v5.4l-13.8,3.4v75.9l13.8,3.4v5.4H78.3v-5.4l12.5-3.4v-35.1H51.5v35.1
      l12.5,3.4v5.4H15.4v-5.4l13.8-3.4v-75.9l-13.8-3.4v-5.4H64v5.4l-12.5,3.4v31.5h39.3V381.3z"></path><path class="st0" d="M200,468.1c-32,0-47.5-22.5-47.5-49c0-26.4,17.8-48.9,48.4-48.9c32.1,0,47.7,22.5,47.7,48.9
      C248.6,445.7,230.7,468.1,200,468.1z M199.3,377.5c-12.6,0-22.5,10.1-22.5,41.7c0,31.7,11.2,41.8,24.9,41.8
      c12.6,0,22.3-13.6,22.3-41.8C224.1,391.1,212.9,377.5,199.3,377.5z"></path><path class="st0" d="M342.8,377.9v-5.4h34.8v5.4l-11.9,4.7v50.3c0,21.4-14.1,35.4-38.3,35.4c-26.3,0-41.1-11.4-41.1-36.1v-50.9
      l-13.4-3.4v-5.4h49.6v5.4l-13.9,3.4v51.1c0,17.3,8.5,25.1,23.5,25.1c14.2,0,22.2-10,22.2-24.8v-50L342.8,377.9z"></path><path class="st0" d="M435.4,468.1c-9.1,0-17.2-2.3-22.9-5.1l-3.8,5h-5.7l-1.9-32.7l6.3-0.3c8.4,20.3,17.3,25.7,27.6,25.7
      c10.1,0,16.1-6.2,16.1-14.5c0-7.9-4.5-11.9-17.3-17.2c-4.7-2.1-9.4-3.8-13.9-6c-10.4-5-16.4-12.9-16.4-24.7
      c0-16.7,13.6-28,30.8-28c8.4,0,14.2,2.1,18.9,4.7l3.8-4.8h5.7l2.5,29.1l-6.2,0.3c-7.9-16-14.5-21.7-23.8-21.7
      c-7.9,0-13.1,4.8-13.1,12.5c0,7,3.5,11.2,13.6,15.6c5.1,2.3,10.7,4.3,16.1,6.9c11.9,5.7,17.5,13.8,17.5,24.9
      C469.4,456.4,454.4,468.1,435.4,468.1z"></path><path class="st0" d="M578.3,401.7l-4,0.9l-9.5-12.3c-5.6-7-8.5-9.2-18-9.5l-15.7-0.3v35.1h6.5c7.8,0,9.8-1.6,13.4-11.7l1.6-4.7
      h4.5v40.1h-4.7l-1.5-4.3c-3.4-10-5.6-11.9-13.4-11.9H531v34.9l21.1-0.6c8.7-0.3,12-2.8,16.7-8.5l10.3-13.1l4,0.6l-3.2,29.6h-85
      v-5.4l13.8-3.4v-75.9l-13.8-3.4v-5.4h80.7L578.3,401.7z"></path></g></g><g><g><rect x="487.6" y="69.1" class="st1" width="2.1" height="6.7"></rect><rect x="487.6" y="76.6" class="st1" width="2.1" height="6.7"></rect><rect x="490.5" y="76.6" class="st1" width="2.1" height="6.7"></rect><rect x="490.5" y="69.1" class="st1" width="2.1" height="6.7"></rect><path class="st1" d="M522.7,36h-65c-0.5,0-0.9,0.4-0.9,0.9v52.4c0,0.5,0.4,0.9,0.9,0.9h64.9c0.5,0,0.9-0.4,0.9-0.9V36.9
      C523.5,36.4,523.1,36,522.7,36z M506.2,56.6c0-0.1,0.1-0.2,0.1-0.3c0.2-0.2,0.3-0.5,0.3-0.9v-5.7c0-0.3-0.1-0.7-0.3-0.9
      c-0.1-0.1-0.1-0.2-0.1-0.3v-1.1c0-0.1,0.1-0.3,0.3-0.3h7.2c0.1,0,0.3,0.1,0.3,0.3v1.1c0,0.1-0.1,0.2-0.1,0.3
      c-0.2,0.3-0.3,0.6-0.3,1v5.6c0,0.3,0.1,0.7,0.3,0.9c0.1,0.1,0.1,0.2,0.1,0.3v2.6c0,0.1-0.1,0.3-0.3,0.3h-7.2
      c-0.1,0-0.3-0.1-0.3-0.3V56.6z M486.3,56.6c0-0.1,0.1-0.2,0.1-0.3c0.2-0.2,0.3-0.5,0.3-1v-5.6c0-0.3-0.1-0.7-0.3-0.9
      c-0.1-0.1-0.1-0.2-0.1-0.3v-1.1c0-0.1,0.1-0.3,0.3-0.3h7.2c0.1,0,0.3,0.1,0.3,0.3v1.1c0,0.1-0.1,0.2-0.1,0.3
      c-0.2,0.2-0.3,0.5-0.3,0.9v5.7c0,0.3,0.1,0.7,0.3,0.9c0.1,0.1,0.1,0.2,0.1,0.3v2.6c0,0.1-0.1,0.3-0.3,0.3h-7.2
      c-0.1,0-0.3-0.1-0.3-0.3V56.6z M466.3,56.6c0-0.1,0.1-0.2,0.1-0.3c0.2-0.2,0.3-0.5,0.3-1v-5.6c0-0.3-0.1-0.7-0.3-0.9
      c-0.1-0.1-0.1-0.2-0.1-0.3v-1.1c0-0.1,0.1-0.3,0.3-0.3h7.2c0.1,0,0.3,0.1,0.3,0.3v1.1c0,0.1-0.1,0.2-0.1,0.3
      c-0.2,0.2-0.3,0.5-0.3,0.9v5.7c0,0.3,0.1,0.7,0.3,0.9c0.1,0.1,0.1,0.2,0.1,0.3v2.6c0,0.1-0.1,0.3-0.3,0.3h-7.2
      c-0.1,0-0.3-0.1-0.3-0.3V56.6z M474.1,67.1c0,0.1-0.1,0.2-0.1,0.3c-0.2,0.2-0.3,0.6-0.3,0.9v6.9c0,0.3,0.1,0.7,0.3,0.9
      c0.1,0.1,0.1,0.2,0.1,0.3V79c0,0.1-0.1,0.3-0.3,0.3h-7.2c-0.1,0-0.3-0.1-0.3-0.3v-2.6c0-0.1,0.1-0.2,0.1-0.3
      c0.2-0.2,0.3-0.5,0.3-0.9v-6.9c0-0.3-0.1-0.7-0.3-0.9c-0.1-0.1-0.1-0.2-0.1-0.3V66c0-0.1,0.1-0.3,0.3-0.3h7.2
      c0.1,0,0.3,0.1,0.3,0.3V67.1z M474.5,63.9c-0.1,0.1-0.2,0.2-0.2,0.2h-7.9c-0.1,0-0.3-0.1-0.3-0.2c-0.1-0.1-0.1-0.3,0.1-0.4
      c1.2-1,2.6-1.5,4.2-1.5c1.5,0,3,0.5,4.2,1.5C474.5,63.6,474.5,63.8,474.5,63.9z M494,84.7c-2.6,0-5.1,0-7.6,0
      c-0.2,0-0.4-0.2-0.4-0.4c0-5.5,0-10.9,0-16.4c0.1-5.5,8.2-5.5,8.3,0c0,5.5,0,10.9,0.1,16.4C494.3,84.5,494.1,84.7,494,84.7z
       M513.9,67.1c0,0.1-0.1,0.2-0.1,0.3c-0.2,0.2-0.3,0.6-0.3,0.9v6.9c0,0.3,0.1,0.7,0.3,0.9c0.1,0.1,0.1,0.2,0.1,0.3V79
      c0,0.1-0.1,0.3-0.3,0.3h-7.2c-0.1,0-0.3-0.1-0.3-0.3v-2.6c0-0.1,0.1-0.2,0.1-0.3c0.2-0.2,0.3-0.5,0.3-0.9v-6.9
      c0-0.3-0.1-0.7-0.3-0.9c-0.1-0.1-0.1-0.2-0.1-0.3V66c0-0.1,0.1-0.3,0.3-0.3h7.2c0.1,0,0.3,0.1,0.3,0.3V67.1z M514.3,63.9
      c-0.1,0.1-0.2,0.2-0.2,0.2h-7.9c-0.1,0-0.3-0.1-0.3-0.2c-0.1-0.1-0.1-0.3,0.1-0.4c1.2-1,2.6-1.5,4.2-1.5s3,0.5,4.2,1.5
      C514.3,63.6,514.4,63.8,514.3,63.9z"></path></g><path class="st0" d="M506.9,19.8l1.9,0.8h16.1l0.7-0.9c0.1-0.1,0-0.3-0.2-0.3H507C506.8,19.4,506.7,19.8,506.9,19.8z"></path><path class="st0" d="M530.4,25.2v2.4c0,0.2,0.1,0.3,0.3,0.3h5.7c0.1,0,0.3-0.1,0.3-0.3v-2.4l1-1.3c0.1-0.2,0-0.5-0.2-0.5h-7.9
    c-0.3,0-0.4,0.3-0.2,0.5L530.4,25.2z"></path><path class="st0" d="M524.8,94.5H493h-5.8h-31.7c-0.2,0-0.4,0.2-0.4,0.4v2.9c0,0.2,0.2,0.4,0.4,0.4h31.7h5.8h31.7
    c0.2,0,0.4-0.2,0.4-0.4v-2.9C525.2,94.6,525,94.5,524.8,94.5z"></path><path class="st0" d="M510.6,21.4l13.9,5.4c0.1,0.1,0.3-0.1,0.3-0.2V25c0-0.1,0-0.1-0.1-0.1l-0.3-0.4c0-0.1-0.1-0.1-0.1-0.1v-3
    L510.6,21.4L510.6,21.4z"></path><path class="st0" d="M455.4,20.6h16.1l1.9-0.8c0.2-0.1,0.1-0.4-0.1-0.4h-18.4c-0.2,0-0.3,0.2-0.2,0.3L455.4,20.6z"></path><path class="st0" d="M443.6,25.2v2.4c0,0.2,0.1,0.3,0.3,0.3h5.7c0.1,0,0.3-0.1,0.3-0.3v-2.4l1-1.3c0.1-0.2,0-0.5-0.2-0.5h-7.9
    c-0.3,0-0.4,0.3-0.2,0.5L443.6,25.2z"></path><path class="st0" d="M587.2,84.3h-63c-0.2-0.5-0.4-1.1-0.5-1.6h-6.2c-0.2,0-0.3,0.1-0.4,0.3c-0.1,0.5-0.3,1-0.5,1.5
    c-0.2,0.5-0.5,0.9-0.8,1.4v2.5h-11.2v-2.5c-0.6-0.9-1-1.9-1.3-2.8c-0.1-0.2-0.2-0.3-0.4-0.3h-5.9c-0.2,0-0.3,0.1-0.4,0.3
    c-0.3,1-0.7,1.9-1.3,2.8v2.5h-4h-2.2h-4v-2.5c-0.6-0.9-1-1.9-1.3-2.8c-0.1-0.2-0.2-0.3-0.4-0.3h-5.9c-0.2,0-0.3,0.1-0.4,0.3
    c-0.3,1-0.7,1.9-1.3,2.8v2.5h-11.2v-2.5c-0.3-0.5-0.5-0.9-0.8-1.4c-0.2-0.5-0.4-1-0.5-1.5c-0.1-0.2-0.2-0.3-0.4-0.3h-6.2
    c-0.1,0.5-0.3,1.1-0.5,1.6h-63.2c-0.3,0-0.6,0.3-0.6,0.6v5.4c0,0.3,0.3,0.6,0.6,0.6h62v2c0,0.3,0.3,0.5,0.5,0.5h33.4h2.2h33.4
    c0.3,0,0.5-0.3,0.5-0.5v-2h62c0.3,0,0.6-0.3,0.6-0.6v-5.4C587.7,84.5,587.5,84.3,587.2,84.3z"></path><path class="st0" d="M455.8,24.6l-0.3,0.4c0,0.1-0.1,0.1-0.1,0.1v1.7c0,0.1,0.1,0.3,0.3,0.2l13.9-5.4h-13.8L455.8,24.6
    C455.9,24.4,455.9,24.5,455.8,24.6z"></path><path class="st0" d="M502.9,48c0-0.2,0-0.4,0-0.5c0-2.9,0-5.6,0-5.6c0.1-0.9,0.4-1.9,0.8-2.8h-7.6c0.4,0.9,0.7,1.8,0.8,2.8v15v3v21
    V81c0,0.3,0.3,0.6,0.6,0.6h4.9c0.3,0,0.6-0.3,0.6-0.6c0,0,0-20.8,0-32.1C502.9,48.6,502.9,48.3,502.9,48z"></path><path class="st0" d="M483.5,46.2c0.1-5.3,0.4-6.2,0.8-7.1h-7.6c0.4,0.9,0.7,1.8,0.8,2.8c0,0,0,0.9,0,2.4c0,11.3,0,36.8,0,36.8
    c0,0.3,0.3,0.6,0.6,0.6h4.9c0.3,0,0.6-0.3,0.6-0.6V81V59.5v-2.6L483.5,46.2L483.5,46.2z"></path><path class="st0" d="M398.8,32c0-0.3,0.3-0.5,0.6-0.5h9.2c0.3,0,0.6,0.2,0.6,0.5v2.3c0,0.3-0.3,0.5-0.6,0.5h-9.2
    c-0.3,0-0.6-0.2-0.6-0.5V32z M413.7,32c0-0.3,0.3-0.5,0.6-0.5h9.2c0.3,0,0.6,0.2,0.6,0.5v2.3c0,0.3-0.3,0.5-0.6,0.5h-9.2
    c-0.3,0-0.6-0.2-0.6-0.5L413.7,32L413.7,32z M428.5,32c0-0.3,0.3-0.5,0.6-0.5h9.2c0.3,0,0.6,0.2,0.6,0.5v2.3c0,0.3-0.3,0.5-0.6,0.5
    h-9.2c-0.3,0-0.6-0.2-0.6-0.5V32z M443.4,32c0-0.3,0.3-0.5,0.6-0.5h10.7c0.3,0,0.6,0.2,0.6,0.5v1.5H525v-1.5c0-0.3,0.3-0.5,0.6-0.5
    h10.7c0.3,0,0.6,0.2,0.6,0.5v2.3c0,0.3-0.3,0.5-0.6,0.5H444c-0.3,0-0.6-0.2-0.6-0.5V32z M461.2,28.9l29-11.6l29,11.6h-4.8
    l-12.1-4.8l-12.1-4.8L478,24.1L466,28.9H461.2z M541.4,32c0-0.3,0.3-0.5,0.6-0.5h9.2c0.3,0,0.6,0.2,0.6,0.5v2.3
    c0,0.3-0.3,0.5-0.6,0.5H542c-0.3,0-0.6-0.2-0.6-0.5V32z M556.3,32c0-0.3,0.3-0.5,0.6-0.5h9.2c0.3,0,0.6,0.2,0.6,0.5v2.3
    c0,0.3-0.3,0.5-0.6,0.5h-9.2c-0.3,0-0.6-0.2-0.6-0.5V32z M571.2,32c0-0.3,0.3-0.5,0.6-0.5h9.2c0.3,0,0.6,0.2,0.6,0.5v2.3
    c0,0.3-0.3,0.5-0.6,0.5h-9.2c-0.3,0-0.6-0.2-0.6-0.5V32z M527.4,63.7l4.2-1.8c0.1,0,0.1,0,0.1,0c0.1,0,0.1,0,0.1,0l4.2,1.8
    c0.1,0.1,0.2,0.2,0.1,0.3c0,0.1-0.1,0.2-0.3,0.2h-8.3c-0.1,0-0.3-0.1-0.3-0.2C527.2,63.8,527.3,63.7,527.4,63.7z M527.8,56.6
    c0-0.1,0.1-0.2,0.1-0.3c0.2-0.3,0.3-0.6,0.3-0.9v-5.7c0-0.4-0.1-0.7-0.3-0.9c-0.1-0.1-0.1-0.1-0.1-0.3v-1.1c0-0.1,0.1-0.3,0.3-0.3
    h7.2c0.1,0,0.3,0.1,0.3,0.3v1.1c0,0.1-0.1,0.2-0.1,0.3c-0.2,0.3-0.3,0.6-0.3,0.9v5.6c0,0.4,0.1,0.7,0.3,0.9
    c0.1,0.1,0.1,0.1,0.1,0.3v2.6c0,0.1-0.1,0.3-0.3,0.3h-7.2c-0.1,0-0.3-0.1-0.3-0.3V56.6z M542.4,63.5c0.1-0.1,0.3-0.2,0.4-0.3
    c1.1-0.8,2.4-1.2,3.8-1.2c1.5,0,3,0.5,4.2,1.5l0.1,0.1c0.1,0.1,0.1,0.2,0.1,0.3s-0.1,0.1-0.1,0.2c0,0,0,0-0.1,0c0,0,0,0-0.1,0h-0.1
    h-7.9c-0.1,0-0.2-0.1-0.2-0.1c-0.1-0.1-0.1-0.1-0.1-0.1C542.3,63.8,542.3,63.6,542.4,63.5z M542.7,56.6c0-0.1,0.1-0.2,0.1-0.3
    c0.2-0.3,0.3-0.6,0.3-0.9v-5.7c0-0.4-0.1-0.7-0.3-0.9c-0.1-0.1-0.1-0.1-0.1-0.3v-1.1c0-0.1,0.1-0.3,0.3-0.3h7.2
    c0.1,0,0.3,0.1,0.3,0.3v1.1c0,0.1-0.1,0.2-0.1,0.3c-0.2,0.3-0.3,0.6-0.3,0.9v5.6c0,0.4,0.1,0.7,0.3,0.9c0.1,0.1,0.1,0.1,0.1,0.3
    v2.6c0,0.1-0.1,0.3-0.3,0.3h-7.2c-0.1,0-0.3-0.1-0.3-0.3V56.6z M557.1,63.7l4.2-1.8c0.1,0,0.1,0,0.1,0h0.1c0,0,0,0,0.1,0l4.2,1.8
    c0.1,0,0.1,0.1,0.1,0.1c0.1,0.1,0.1,0.1,0.1,0.2s-0.1,0.1-0.1,0.2c-0.1,0-0.1,0.1-0.1,0.1h-8.3c-0.1,0-0.1,0-0.1-0.1
    c-0.1,0-0.1-0.1-0.1-0.1V64C557,63.9,557,63.8,557.1,63.7z M557.6,56.6c0-0.1,0.1-0.2,0.1-0.3c0.2-0.3,0.3-0.6,0.3-0.9v-5.7
    c0-0.4-0.1-0.7-0.3-0.9c-0.1-0.1-0.1-0.1-0.1-0.3v-1.1c0-0.1,0.1-0.3,0.3-0.3h7.2c0.1,0,0.3,0.1,0.3,0.3v1.1c0,0.1-0.1,0.2-0.1,0.3
    c-0.2,0.3-0.3,0.6-0.3,0.9v5.6c0,0.4,0.1,0.7,0.3,0.9c0.1,0.1,0.1,0.1,0.1,0.3v2.6c0,0.1-0.1,0.3-0.3,0.3h-7.2
    c-0.1,0-0.3-0.1-0.3-0.3V56.6z M572.1,63.5c0.1-0.1,0.3-0.2,0.4-0.3c1.1-0.8,2.4-1.2,3.8-1.2c1.5,0,3,0.5,4.2,1.5l0.1,0.1
    c0.1,0.1,0.1,0.2,0.1,0.3s-0.1,0.1-0.1,0.2c0,0,0,0-0.1,0c0,0,0,0-0.1,0h-0.1h-7.9c-0.1,0-0.2-0.1-0.2-0.1
    c-0.1-0.1-0.1-0.1-0.1-0.1C572,63.8,572,63.6,572.1,63.5z M572.4,56.6c0-0.1,0.1-0.2,0.1-0.3c0.2-0.3,0.3-0.6,0.3-0.9v-5.7
    c0-0.4-0.1-0.7-0.3-0.9c-0.1-0.1-0.1-0.1-0.1-0.3v-1.1c0-0.1,0.1-0.3,0.3-0.3h7.2c0.1,0,0.3,0.1,0.3,0.3v1.1c0,0.1-0.1,0.2-0.1,0.3
    c-0.2,0.3-0.3,0.6-0.3,0.9v5.6c0,0.4,0.1,0.7,0.3,0.9c0.1,0.1,0.1,0.1,0.1,0.3v2.6c0,0.1-0.1,0.3-0.3,0.3h-7.2
    c-0.1,0-0.3-0.1-0.3-0.3V56.6z M580.1,67.1c0,0.1-0.1,0.2-0.1,0.3c-0.2,0.3-0.3,0.6-0.3,0.9v6.9c0,0.4,0.1,0.7,0.3,0.9
    c0.1,0.1,0.1,0.1,0.1,0.3V79c0,0.1-0.1,0.3-0.3,0.3h-7.2c-0.1,0-0.3-0.1-0.3-0.3v-2.6c0-0.1,0.1-0.2,0.1-0.3
    c0.2-0.3,0.3-0.6,0.3-0.9v-6.9c0-0.4-0.1-0.7-0.3-0.9c-0.1-0.1-0.1-0.1-0.1-0.3V66c0-0.1,0.1-0.3,0.3-0.3h7.2
    c0.1,0,0.3,0.1,0.3,0.3V67.1z M565.3,67.1c0,0.1-0.1,0.2-0.1,0.3c-0.2,0.3-0.3,0.6-0.3,0.9v6.9c0,0.4,0.1,0.7,0.3,0.9
    c0.1,0.1,0.1,0.1,0.1,0.3V79c0,0.1-0.1,0.3-0.3,0.3h-7.2c-0.1,0-0.3-0.1-0.3-0.3v-2.6c0-0.1,0.1-0.2,0.1-0.3
    c0.2-0.3,0.3-0.6,0.3-0.9v-6.9c0-0.4-0.1-0.7-0.3-0.9c-0.1-0.1-0.1-0.1-0.1-0.3V66c0-0.1,0.1-0.3,0.3-0.3h7.2
    c0.1,0,0.3,0.1,0.3,0.3V67.1z M550.4,67.1c0,0.1-0.1,0.2-0.1,0.3c-0.2,0.3-0.3,0.6-0.3,0.9v6.9c0,0.4,0.1,0.7,0.3,0.9
    c0.1,0.1,0.1,0.1,0.1,0.3V79c0,0.1-0.1,0.3-0.3,0.3h-7.2c-0.1,0-0.3-0.1-0.3-0.3v-2.6c0-0.1,0.1-0.2,0.1-0.3
    c0.2-0.3,0.3-0.6,0.3-0.9v-6.9c0-0.4-0.1-0.7-0.3-0.9c-0.1-0.1-0.1-0.1-0.1-0.3V66c0-0.1,0.1-0.3,0.3-0.3h7.2
    c0.1,0,0.3,0.1,0.3,0.3V67.1z M535.5,67.1c0,0.1-0.1,0.2-0.1,0.3c-0.2,0.3-0.3,0.6-0.3,0.9v6.9c0,0.4,0.1,0.7,0.3,0.9
    c0.1,0.1,0.1,0.1,0.1,0.3V79c0,0.1-0.1,0.3-0.3,0.3h-7.2c-0.1,0-0.3-0.1-0.3-0.3v-2.6c0-0.1,0.1-0.2,0.1-0.3
    c0.2-0.3,0.3-0.6,0.3-0.9v-6.9c0-0.4-0.1-0.7-0.3-0.9c-0.1-0.1-0.1-0.1-0.1-0.3V66c0-0.1,0.1-0.3,0.3-0.3h7.2
    c0.1,0,0.3,0.1,0.3,0.3V67.1z M452.8,64.2h-8.3c-0.1,0-0.3-0.1-0.3-0.2c0-0.1,0.1-0.3,0.1-0.3l4.2-1.8c0.1,0,0.1,0,0.1,0
    c0.1,0,0.1,0,0.1,0l4.2,1.8c0.1,0.1,0.2,0.2,0.1,0.3C453,64.2,452.9,64.2,452.8,64.2z M452.4,67.1c0,0.1-0.1,0.2-0.1,0.3
    c-0.2,0.3-0.3,0.6-0.3,0.9v6.9c0,0.4,0.1,0.7,0.3,0.9c0.1,0.1,0.1,0.1,0.1,0.3V79c0,0.1-0.1,0.3-0.3,0.3H445
    c-0.1,0-0.3-0.1-0.3-0.3v-2.6c0-0.1,0.1-0.2,0.1-0.3c0.2-0.3,0.3-0.6,0.3-0.9v-6.9c0-0.4-0.1-0.7-0.3-0.9c-0.1-0.1-0.1-0.1-0.1-0.3
    V66c0-0.1,0.1-0.3,0.3-0.3h7.2c0.1,0,0.3,0.1,0.3,0.3V67.1z M438,63.9c0,0.1-0.1,0.1-0.1,0.1l-0.1,0.1c-0.1,0-0.1,0.1-0.1,0.1h-7.9
    c-0.1,0-0.1,0-0.1-0.1c-0.1-0.1-0.2-0.1-0.2-0.2s0-0.2,0-0.3c0,0,0-0.1,0.1-0.1c0,0,0-0.1,0.1-0.1c0.3-0.3,0.6-0.5,0.9-0.7
    c0,0,0.1,0,0.1-0.1c1-0.5,2-0.9,3.2-0.9c1.5,0,3,0.5,4.2,1.5C438,63.6,438.1,63.8,438,63.9z M437.6,67.1c0,0.1-0.1,0.2-0.1,0.3
    c-0.2,0.3-0.3,0.6-0.3,0.9v6.9c0,0.4,0.1,0.7,0.3,0.9c0.1,0.1,0.1,0.1,0.1,0.3V79c0,0.1-0.1,0.3-0.3,0.3h-7.2
    c-0.1,0-0.3-0.1-0.3-0.3v-2.6c0-0.1,0.1-0.2,0.1-0.3c0.2-0.3,0.3-0.6,0.3-0.9v-6.9c0-0.4-0.1-0.7-0.3-0.9c-0.1-0.1-0.1-0.1-0.1-0.3
    V66c0-0.1,0.1-0.3,0.3-0.3h7.2c0.1,0,0.3,0.1,0.3,0.3V67.1z M423.1,64.2c-0.1,0-0.1,0.1-0.1,0.1h-8.3c-0.1,0-0.1,0-0.1,0
    s-0.1-0.1-0.1-0.1V64c0-0.1,0.1-0.3,0.1-0.3l4.2-1.8c0,0,0,0,0.1,0h0.1c0.1,0,0.1,0,0.1,0l4.2,1.8c0.1,0.1,0.2,0.2,0.1,0.3
    C423.3,64.1,423.2,64.2,423.1,64.2z M422.7,67.1c0,0.1-0.1,0.2-0.1,0.3c-0.2,0.3-0.3,0.6-0.3,0.9v6.9c0,0.4,0.1,0.7,0.3,0.9
    c0.1,0.1,0.1,0.1,0.1,0.3V79c0,0.1-0.1,0.3-0.3,0.3h-7.2c-0.1,0-0.3-0.1-0.3-0.3v-2.6c0-0.1,0.1-0.2,0.1-0.3
    c0.2-0.3,0.3-0.6,0.3-0.9v-6.9c0-0.4-0.1-0.7-0.3-0.9c-0.1-0.1-0.1-0.1-0.1-0.3V66c0-0.1,0.1-0.3,0.3-0.3h7.2
    c0.1,0,0.3,0.1,0.3,0.3V67.1z M408.3,63.9c0,0.1-0.1,0.1-0.1,0.2c-0.1,0-0.1,0.1-0.1,0.1h-7.9c0,0,0,0-0.1,0H400
    c-0.1-0.1-0.1-0.1-0.1-0.2c-0.1-0.1,0-0.3,0.1-0.3c0,0,0,0,0.1-0.1c0.1-0.1,0.2-0.2,0.3-0.3c0.1-0.1,0.1-0.1,0.2-0.1
    c0.1-0.1,0.2-0.1,0.3-0.2c0.1-0.1,0.2-0.1,0.3-0.2c0.9-0.5,1.9-0.7,3-0.7c1.5,0,3,0.5,4.2,1.5C408.3,63.6,408.3,63.8,408.3,63.9z
     M407.8,67.1c0,0.1-0.1,0.2-0.1,0.3c-0.2,0.3-0.3,0.6-0.3,0.9v6.9c0,0.4,0.1,0.7,0.3,0.9c0.1,0.1,0.1,0.1,0.1,0.3V79
    c0,0.1-0.1,0.3-0.3,0.3h-7.2c-0.1,0-0.3-0.1-0.3-0.3v-2.6c0-0.1,0.1-0.2,0.1-0.3c0.2-0.3,0.3-0.6,0.3-0.9v-6.9
    c0-0.4-0.1-0.7-0.3-0.9c-0.1-0.1-0.1-0.1-0.1-0.3V66c0-0.1,0.1-0.3,0.3-0.3h7.2c0.1,0,0.3,0.1,0.3,0.3V67.1z M400.2,56.6
    c0-0.1,0.1-0.2,0.1-0.3c0.2-0.3,0.3-0.6,0.3-0.9v-5.6c0-0.4-0.1-0.7-0.3-0.9c-0.1-0.1-0.1-0.1-0.1-0.3v-1.2c0-0.1,0.1-0.3,0.3-0.3
    h7.2c0.1,0,0.3,0.1,0.3,0.3v1.1c0,0.1-0.1,0.2-0.1,0.3c-0.2,0.3-0.3,0.6-0.3,0.9v5.7c0,0.4,0.1,0.7,0.3,0.9
    c0.1,0.1,0.1,0.1,0.1,0.3v2.6c0,0.1-0.1,0.3-0.3,0.3h-7.3c-0.1,0-0.3-0.1-0.3-0.3L400.2,56.6L400.2,56.6z M415,56.6
    c0-0.1,0.1-0.2,0.1-0.3c0.2-0.3,0.3-0.6,0.3-0.9v-5.6c0-0.4-0.1-0.7-0.3-0.9c-0.1-0.1-0.1-0.1-0.1-0.3v-1.2c0-0.1,0.1-0.3,0.3-0.3
    h7.2c0.1,0,0.3,0.1,0.3,0.3v1.1c0,0.1-0.1,0.2-0.1,0.3c-0.2,0.3-0.3,0.6-0.3,0.9v5.7c0,0.4,0.1,0.7,0.3,0.9
    c0.1,0.1,0.1,0.1,0.1,0.3v2.6c0,0.1-0.1,0.3-0.3,0.3h-7.2c-0.1,0-0.3-0.1-0.3-0.3V56.6z M429.9,56.6c0-0.1,0.1-0.2,0.1-0.3
    c0.2-0.3,0.3-0.6,0.3-0.9v-5.6c0-0.4-0.1-0.7-0.3-0.9c-0.1-0.1-0.1-0.1-0.1-0.3v-1.2c0-0.1,0.1-0.3,0.3-0.3h7.2
    c0.1,0,0.3,0.1,0.3,0.3v1.1c0,0.1-0.1,0.2-0.1,0.3c-0.2,0.3-0.3,0.6-0.3,0.9v5.7c0,0.4,0.1,0.7,0.3,0.9c0.1,0.1,0.1,0.1,0.1,0.3
    v2.6c0,0.1-0.1,0.3-0.3,0.3h-7.2c-0.1,0-0.3-0.1-0.3-0.3V56.6z M444.7,56.6c0-0.1,0.1-0.2,0.1-0.3c0.2-0.3,0.3-0.6,0.3-0.9v-5.6
    c0-0.4-0.1-0.7-0.3-0.9c-0.1-0.1-0.1-0.1-0.1-0.3v-1.2c0-0.1,0.1-0.3,0.3-0.3h7.2c0.1,0,0.3,0.1,0.3,0.3v1.1c0,0.1-0.1,0.2-0.1,0.3
    c-0.2,0.3-0.3,0.6-0.3,0.9v5.7c0,0.4,0.1,0.7,0.3,0.9c0.1,0.1,0.1,0.1,0.1,0.3v2.6c0,0.1-0.1,0.3-0.3,0.3H445
    c-0.1,0-0.3-0.1-0.3-0.3V56.6z M393.1,30.6h1.6c0,0,0.1,0,0.1,0.1v6.7c0,0.2,0.1,0.3,0.3,0.3h60.4c0.3,0.5,0.5,0.9,0.7,1.5
    c-3.8,0-63.1,0-63.1,0c-0.2,0-0.4,0.2-0.4,0.4v1.9c0,0.3,0.2,0.4,0.4,0.4h63.8c0,0,0,0.6,0,1.7h-62c-0.1,0-0.2,0.1-0.2,0.2v37.9
    c0.1,0,67.6,0,67.6,0c0.3,0,0.6-0.3,0.6-0.6V81c0-0.3,0.1-38.8,0.1-38.8c0-0.3,0-0.3,0-0.3c0.1-0.7,0.3-1.5,0.5-2.1
    c0.3-0.7,0.6-1.4,1-2h23.6h4.2h23.6c0.4,0.7,0.7,1.3,1,2c0.3,0.7,0.4,1.4,0.5,2.1c0,0,0,0.1,0,0.3c0,0,0.1,38.5,0.1,38.8V81
    c0,0.3,0.3,0.6,0.6,0.6l65.9-0.1h0.2h1.3c0.1,0,0.2-0.1,0.2-0.2V43.7c0-0.1-0.1-0.2-0.2-0.2h-62c0-1.1,0-1.7,0-1.7h63.8
    c0.3,0,0.4-0.2,0.4-0.4v-1.9c0-0.2-0.1-0.4-0.4-0.4c0,0-59.3,0-63.1,0c0.2-0.5,0.5-1,0.7-1.5h60.5c0.2,0,0.3-0.1,0.3-0.3v-6.7
    c0,0,0-0.1,0.1-0.1h1.6c0.3,0,0.4-0.2,0.4-0.4v-0.9c0-0.3-0.2-0.4-0.4-0.4h-60.2c-0.3,0-0.5-0.1-0.8-0.1l-35.4-14.3v-2.3v-0.7
    c0.7-0.2,1.7-0.4,2.6-0.1c4,1.4,4.9,0.9,4.9,0.8c-0.7-1-0.5-3.1-0.5-3.1c0.3-1.9,0.1-2.3,0.1-2.4c-0.1,0.1-1.3,0.7-4-0.1
    c-1.5-0.5-2.5-0.6-3.2-0.7c0-0.4-0.3-0.7-0.7-0.7c-0.3,0.1-0.6,0.3-0.6,0.7v8.5l-35.5,14.3c-0.3,0.1-0.5,0.1-0.8,0.1h-60.2
    c-0.3,0-0.4,0.2-0.4,0.4v0.9C392.7,30.4,392.8,30.6,393.1,30.6z"></path><polygon class="st0" points="511.6,39 490.1,63.1 468.6,39 468.6,39 468.3,39.2 489.9,63.4 489.9,63.4 490.3,63.4 490.4,63.4
    511.9,39.2 511.9,39.2   "></polygon><path class="st0" d="M490.8,62.1h-1.3c-0.3,0-0.5,0.2-0.5,0.5v3.8c0,0.3,0.2,0.5,0.5,0.5h1.3c0.3,0,0.5-0.2,0.5-0.5v-3.8
    C491.3,62.4,491.1,62.1,490.8,62.1z"></path></g></svg>